# xmcd CD database file
#
# Track frame offsets:
#	150
#	12278
#	26046
#	44174
#	58781
#	75448
#	98591
#	115868
#	133867
#	149000
#	167000
#
# Disc length: 2425 seconds
#
# Revision: 0
# Processed by: cddbd v1.5.1PL0 Copyright (c) Steve Scherf et al.
# Submitted via: CDex 1.51
#
DISCID=9609770b
DTITLE=Brian McGuire - Falling In Love With The World
DYEAR=2003
DGENRE=Merengue
TTITLE0=English As A Foreign Language
TTITLE1=Vodka and Solpadeine
TTITLE2=Rain
TTITLE3=Cowgirl Guardian Angel
TTITLE4=Cousin Bertie
TTITLE5=Falling In Love With The World
TTITLE6=Geometry
TTITLE7=The Opposition Spokeman
TTITLE8=When We Dance
TTITLE9=Sweet Addiction
TTITLE10=Smoke
EXTD=YEAR: 2003
EXTT0=
EXTT1=
EXTT2=
EXTT3=
EXTT4=
EXTT5=
EXTT6=
EXTT7=
EXTT8=
EXTT9=
EXTT10=
PLAYORDER=
